# xmcd CD database file generated by Grip 3.0.7
# 
# Track frame offsets:
#       150
#       25368
#       57330
#       86441
#       111164
#       139469
#       169446
#       193061
#       215294
#       240597
# 
# Disc length: 3573 seconds
# 
# Revision: 1
# Processed by: cddbd v1.4PL0 Copyright (c) Steve Scherf et al.
# Submitted via: Grip 3.0.7
# 
DISCID=910df30a
DTITLE=Boubacar Traore - Secheresse
DYEAR=1999
DGENRE=Folk
TTITLE0=Mariama Kaba
TTITLE1=Benidiagnamogo
TTITLE2=Mant Jini
TTITLE3=Diarabi
TTITLE4=Kele
TTITLE5=Kayes-Ba
TTITLE6=Adieu Pierrette
TTITLE7=Sécheresse
TTITLE8=Santa Mariya
TTITLE9=Kavana
EXTD=
EXTT0=
EXTT1=
EXTT2=
EXTT3=
EXTT4=
EXTT5=
EXTT6=
EXTT7=
EXTT8=
EXTT9=
PLAYORDER=
